<?xml version="1.0" encoding="UTF-8"?>
<!-- Generated by Pixelmator Pro 3.3.11 -->
<svg width="800" height="800" viewBox="0 0 800 800" xmlns="http://www.w3.org/2000/svg">
    <path id="Path" fill="none" stroke="#ffffff" stroke-width="50" stroke-linecap="round" d="M 666.666687 133.333984 L 533.333313 266.666687 M 533.333313 133.333313 L 666.666687 266.666016"/>
    <path id="path1" fill="#ffffff" stroke="none" d="M 503.356689 500.906647 L 485.230011 483.690002 L 503.356689 500.906647 Z M 518.539978 484.92334 L 536.666687 502.140015 L 536.666687 502.140015 L 518.539978 484.92334 Z M 599.093323 473.743347 L 586.623291 495.410004 L 586.623291 495.410004 L 599.093323 473.743347 Z M 662.776672 510.400024 L 650.306641 532.06665 L 662.776672 510.400024 Z M 680.723328 625.280029 L 698.849976 642.496704 L 680.723328 625.280029 Z M 633.369995 675.133301 L 615.243347 657.916626 L 633.369995 675.133301 Z M 589.210022 698.77002 L 591.66333 723.649963 L 589.210022 698.77002 Z M 260.511993 549.17334 L 278.638336 531.956665 L 260.511993 549.17334 Z M 100.096336 232.197998 L 75.132332 233.537659 L 75.132332 233.537659 L 100.096336 232.197998 Z M 315.917328 283.437012 L 334.043335 300.654358 L 334.043335 300.654358 L 315.917328 283.437012 Z M 321.141327 189.77002 L 341.553345 175.337341 L 321.141327 189.77002 Z M 279.108643 130.320313 L 258.695343 144.753357 L 258.695343 144.753357 L 279.108643 130.320313 Z M 175.381653 120.288025 L 193.508011 137.505371 L 175.381653 120.288025 Z M 123.061668 175.371338 L 104.935333 158.153992 L 104.935333 158.153992 L 123.061668 175.371338 Z M 368.769989 435.196655 L 386.896667 417.980011 L 368.769989 435.196655 Z M 521.483337 518.123352 L 536.666687 502.140015 L 500.41333 467.706696 L 485.230011 483.690002 L 521.483337 518.123352 Z M 586.623291 495.410004 L 650.306641 532.06665 L 675.25 488.733337 L 611.56665 452.07666 L 586.623291 495.410004 Z M 662.596619 608.063354 L 615.243347 657.916626 L 651.496704 692.349976 L 698.849976 642.496704 L 662.596619 608.063354 Z M 586.753357 673.890015 C 538.920044 678.613342 414.109985 674.583313 278.638336 531.956665 L 242.385681 566.389954 C 390.029999 721.833374 530.869995 729.649963 591.66333 723.649963 L 586.753357 673.890015 Z M 278.638336 531.956665 C 149.434326 395.926666 127.761665 281.185364 125.060333 230.857971 L 75.132332 233.537659 C 78.440666 295.17868 104.613335 421.343323 242.385681 566.389954 L 278.638336 531.956665 Z M 324.483337 310.719666 L 334.043335 300.654358 L 297.790649 266.219971 L 288.230316 276.285339 L 324.483337 310.719666 Z M 341.553345 175.337341 L 299.521667 115.887695 L 258.695343 144.753357 L 300.728333 204.202698 L 341.553345 175.337341 Z M 157.255325 103.070984 L 104.935333 158.153992 L 141.188004 192.588318 L 193.508011 137.505371 L 157.255325 103.070984 Z M 306.356659 293.502319 C 288.230316 276.285339 288.207336 276.309692 288.184021 276.333984 C 288.175995 276.342651 288.152649 276.367371 288.136993 276.384033 C 288.105316 276.417969 288.072998 276.452332 288.040314 276.487671 C 287.97467 276.55835 287.906677 276.632019 287.83667 276.708984 C 287.696991 276.862671 287.548676 277.028992 287.39267 277.208313 C 287.080994 277.567017 286.738342 277.97699 286.372009 278.440002 C 285.639313 279.365967 284.810333 280.504028 283.940674 281.862671 C 282.196991 284.588013 280.305664 288.177002 278.70401 292.677643 C 275.447327 301.830017 273.672668 313.950012 275.89032 329.085663 C 280.247345 358.823334 299.732666 398.813354 350.643341 452.41333 L 386.896667 417.980011 C 339.309998 367.876648 327.587006 337.02002 325.362 321.837006 C 324.288666 314.511993 325.379333 310.652313 325.810669 309.440338 C 326.053009 308.759003 326.21167 308.569641 326.056335 308.812317 C 325.981323 308.929657 325.831329 309.15036 325.579315 309.468994 C 325.453003 309.628326 325.301331 309.812317 325.119995 310.020996 C 325.029327 310.125 324.931 310.235352 324.825317 310.35202 C 324.772339 310.410339 324.717346 310.470001 324.660339 310.531342 C 324.632019 310.562012 324.602997 310.592987 324.573334 310.624359 C 324.558685 310.639984 324.536011 310.664001 324.528656 310.671692 C 324.505981 310.695679 324.483337 310.719666 306.356659 293.502319 Z M 350.643341 452.41333 C 401.406677 505.856659 439.743317 526.866699 468.993347 531.616699 C 484.003326 534.053345 496.15332 532.106689 505.353333 528.47998 C 509.850006 526.706665 513.406677 524.623291 516.07666 522.72998 C 517.409973 521.783325 518.52002 520.886719 519.41333 520.103333 C 519.863342 519.709961 520.256653 519.343384 520.599976 519.01001 C 520.773376 518.84668 520.93335 518.686646 521.079956 518.540039 C 521.15332 518.466675 521.223328 518.393311 521.289978 518.323364 C 521.323303 518.290039 521.356689 518.256653 521.390015 518.223328 C 521.406677 518.206665 521.429993 518.179993 521.436646 518.17334 C 521.460022 518.146667 521.483337 518.123352 503.356689 500.906647 C 485.230011 483.690002 485.253326 483.666687 485.276672 483.643341 C 485.283356 483.633331 485.306671 483.609985 485.320007 483.593323 C 485.350006 483.563324 485.380005 483.533325 485.410004 483.503357 C 485.470001 483.443329 485.526672 483.383331 485.579987 483.32666 C 485.693329 483.216675 485.800018 483.110016 485.899994 483.013336 C 486.100006 482.820007 486.283325 482.65332 486.443329 482.513336 C 486.76001 482.233337 486.996674 482.053345 487.149994 481.946655 C 487.463348 481.723328 487.429993 481.800018 487.006653 481.966644 C 486.363342 482.220001 483.333344 483.290009 477.01001 482.263336 C 463.589996 480.083344 434.636658 468.240021 386.896667 417.980011 L 350.643341 452.41333 Z M 299.521667 115.887695 C 265.735352 68.101685 198.128006 60.039673 157.255325 103.070984 L 193.508011 137.505371 C 210.936005 119.156982 241.616989 120.598328 258.695343 144.753357 L 299.521667 115.887695 Z M 125.060333 230.857971 C 124.346001 217.548035 130.141663 204.218018 141.188004 192.588318 L 104.935333 158.153992 C 87.073669 176.958984 73.497665 203.082031 75.132332 233.537659 L 125.060333 230.857971 Z M 615.243347 657.916626 C 605.943359 667.709961 596.213318 672.956665 586.753357 673.890015 L 591.66333 723.649963 C 616.56665 721.190002 636.720032 707.910034 651.496704 692.349976 L 615.243347 657.916626 Z M 334.043335 300.654358 C 366.296661 266.698303 368.579987 213.559326 341.553345 175.337341 L 300.728333 204.202698 C 314.799652 224.10498 312.641998 250.584351 297.790649 266.219971 L 334.043335 300.654358 Z M 650.306641 532.06665 C 677.666687 547.81665 683.023315 586.559998 662.596619 608.063354 L 698.849976 642.496704 C 742.346619 596.699951 729.679993 520.063354 675.25 488.733337 L 650.306641 532.06665 Z M 536.666687 502.140015 C 549.513306 488.613312 569.533325 485.573334 586.623291 495.410004 L 611.56665 452.07666 C 574.950012 431 529.536682 437.043335 500.41333 467.706696 L 536.666687 502.140015 Z"/>
</svg>
