<?xml version="1.0" encoding="UTF-8"?>
<!-- Generated by Pixelmator Pro 3.3.11 -->
<svg width="1025" height="800" viewBox="0 0 1025 800" xmlns="http://www.w3.org/2000/svg">
    <g id="Group">
        <g id="g1">
            <path id="Path" fill="#ffffff" stroke="none" d="M 831.332825 40 C 728.665588 40 644.665588 113.332825 644.665588 204 C 644.665588 234.667175 653.998474 265.332825 672.665588 290.667175 C 669.998413 324 661.998413 349.334381 649.998413 362.667175 C 640.665588 372 648.665588 388 661.998413 386.667175 C 673.998413 385.334381 687.331238 382.667175 703.331238 377.334381 C 724.664063 372.001556 743.331238 365.334381 759.331238 356.001556 C 781.998413 364.001556 807.331238 369.334351 831.331238 369.334351 C 932.667175 369.332825 1018 292 1018 200 C 1018 109.332825 935.332825 40 831.332825 40 Z M 831.332825 342.667206 C 807.332764 342.667206 784.665649 338.667175 763.332825 329.334381 C 759.332825 328.001556 755.332764 328.001556 751.332825 330.667175 C 736.665588 338.667175 718 346.667206 696.665588 352 C 692.665588 353.332794 689.998413 353.332794 685.998413 354.667175 C 693.998413 336 697.998413 314.667175 699.331238 289.334381 C 699.331238 286.667175 699.331238 282.667175 696.664063 280.001587 C 679.331238 257.334351 671.331238 232.001587 671.331238 205.334351 C 671.331238 129.334351 741.998413 66.667175 831.331238 66.667175 C 920.664063 66.667175 991.331238 125.334351 991.331238 200 C 991.332825 277.332825 919.332825 342.667206 831.332825 342.667206 Z"/>
        </g>
    </g>
    <g id="g2">
        <g id="g3">
            <path id="path1" fill="#ffffff" stroke="none" d="M 496.667175 666.667175 L 472.667175 666.667175 C 456.667175 666.667175 444.667175 678.667175 444.667175 694.667175 L 444.667175 718.667175 C 444.667175 734.667236 456.667175 746.667175 472.667175 746.667175 L 496.667175 746.667175 C 512.667175 746.667175 524.667175 734.667236 524.667175 718.667175 L 524.667175 694.667175 C 524.667175 678.667175 512.667175 666.667175 496.667175 666.667175 Z M 496.667175 720 L 472.667175 720 C 472.667175 720 471.334381 720 471.334381 718.667175 L 471.334381 694.667175 C 471.334381 694.667175 471.334381 693.334412 472.667175 693.334412 L 496.667175 693.334412 C 496.667175 693.334412 498 693.334412 498 694.667175 L 496.667175 720 Z"/>
        </g>
    </g>
    <g id="g4">
        <g id="g5">
            <path id="path2" fill="#ffffff" stroke="none" d="M 378 80 L 271.332825 80 C 263.332825 80 258 85.332825 258 93.332825 C 258 101.332825 263.332825 106.665649 271.332825 106.665649 L 378 106.665649 C 386 106.665649 391.332825 101.332825 391.332825 93.332825 C 391.332825 85.332825 386 80 378 80 Z"/>
        </g>
    </g>
    <g id="g6">
        <g id="g7">
            <path id="path3" fill="#ffffff" stroke="none" d="M 258 626.667175 L 258 746.667175 C 258 776 282 800 311.332825 800 L 658 800 C 687.332825 800 711.332825 776 711.332825 746.667175 L 711.332825 626.667175 L 258 626.667175 Z M 684.667236 746.667175 C 684.667236 761.334351 672.667236 773.334351 658 773.334351 L 311.332825 773.334351 C 296.665619 773.334351 284.665619 761.334351 284.665619 746.667175 L 284.665619 653.334351 L 684.665649 653.334351 L 684.665649 746.667175 Z"/>
        </g>
    </g>
    <g id="g8">
        <g id="g9">
            <path id="path4" fill="#ffffff" stroke="none" d="M 660.667175 630.667236 C 652.667175 620 651.334412 617.334351 647.334412 612 C 624.667175 582.667236 604.667236 565.332764 578.001587 560 C 576.668762 560 576.668762 560 576.668762 560 C 574.001587 560 574.001587 558.667175 572.668762 558.667175 C 572.668762 558.667175 571.335938 558.667175 571.335938 557.334351 C 567.335938 553.334351 566.003113 549.334351 566.003113 537.334351 C 566.003113 536.001526 566.003113 534.667236 566.003113 533.334412 C 566.003113 532.001587 566.003113 529.334351 566.003113 529.334351 C 566.003113 528.001587 566.003113 526.667175 566.003113 525.334351 C 566.003113 523.434326 566.003113 522.215576 566.003113 521.1875 C 567.209412 519.823486 568.603149 518.101563 570.003113 516.001587 C 575.335938 509.334381 580.670349 502.668762 586.003113 496.001587 C 595.335938 482.668732 602.003174 469.334351 606.003174 456.001556 C 612.670349 449.334381 618.003113 440.001587 618.003113 428.001556 L 618.003113 394.668732 C 618.003113 385.335938 612.670349 377.335938 604.670349 369.335938 L 604.670349 330.668762 C 604.670349 318.668762 600.670288 301.335938 588.670349 284.001587 C 568.670349 256.001587 535.337524 240.001587 484.670319 240.001587 C 434.003143 240.001587 400.670319 256.001587 380.670319 284.001587 C 368.670319 301.334381 364.670319 318.668762 364.670319 330.668762 L 364.670319 369.335938 C 356.670319 377.335938 351.337494 385.335938 351.337494 394.668732 L 351.337494 428.001556 C 351.337494 440.001587 356.670319 449.334381 366.0047 456.001556 C 370.0047 469.334351 376.671875 482.668732 386.0047 496.001587 C 391.337524 504.001556 396.671875 510.668762 402.0047 516.001587 C 403.337524 517.334351 404.671875 518.668762 406.0047 520.001587 C 406.0047 521.334351 406.0047 522.668701 406.0047 525.334351 C 406.0047 530.667236 406.0047 533.334412 406.0047 536.001526 C 406.0047 548.001587 403.337524 554.668762 399.337494 557.334351 C 399.337494 557.334351 398.0047 558.667175 396.670319 558.667175 C 395.337494 558.667175 394.003143 560 390.003143 560 C 387.335938 561.332764 386.003143 561.332764 383.335938 561.332764 C 367.335938 566.665588 355.335938 576 339.335938 593.332825 C 332.667206 600 318 620 314 625.332825 C 312.667175 626.665649 320.667206 652 320.667206 652 L 675.334412 652 L 660.667175 630.667236 Z M 347.332825 628 L 347.332825 626.667175 C 351.332825 622.667175 354 618.667175 359.332825 613.334351 C 372.665619 598.667175 382 592.001587 391.332825 589.334412 C 392.665619 589.334412 394 589.334412 395.332825 588.001587 C 399.332825 586.668701 402 586.668701 404.665619 585.334412 C 407.332825 584.001526 409.998444 582.667236 412.665649 581.334351 C 427.332825 572.001587 431.332825 558.667175 431.332825 537.334351 C 431.332825 533.334412 431.332825 530.667236 431.332825 524.001587 C 431.332825 518.668762 431.332825 517.334351 431.332825 514.668762 L 431.332825 509.335938 L 427.332825 506.668762 C 426 505.335938 424.665649 504.001556 422 500.001587 C 418 494.668762 412.667206 489.334381 408.667206 482.668732 C 400.667206 470.668732 394 457.335938 391.334381 445.335968 L 390 440 L 386 437.332825 C 380.667206 434.665619 378 430.665649 378 428.000031 L 378 394.667206 C 378 393.334351 380.667206 389.334381 387.332825 385.334381 L 391.332825 381.334381 L 391.332825 330.667175 C 391.332825 329.334381 391.332825 326.667175 392.665619 321.334381 C 393.998444 313.334381 397.998444 306.667175 401.998444 298.667206 C 416.665619 278.667175 441.998444 265.334351 484.665619 265.334351 C 527.332825 265.334351 552.665649 277.334351 567.332825 298.667206 C 572.665649 305.334381 575.332825 313.334381 576.665649 321.334381 C 577.998474 325.334381 577.998474 329.334381 577.998474 330.667175 L 577.998474 374.667206 L 577.998474 381.334381 L 581.998474 385.334381 C 587.331299 390.667175 591.331299 394.667206 591.331299 394.667206 L 591.331299 428.000031 C 591.331299 430.667206 588.664063 433.332825 584.664063 437.332825 L 579.331238 440 L 577.998474 445.332825 C 575.331238 457.332794 568.665649 469.332794 560.665649 482.665649 C 556.665649 489.332825 551.332825 494.665619 547.332825 499.998413 C 544.665649 502.665619 542 505.331238 542 506.665619 C 538 510.665619 536.667236 514.665588 536.667236 519.998413 C 536.667236 522.665649 536.667236 525.331299 536.667236 529.331299 C 536.667236 530.664063 536.667236 531.998413 536.667236 533.331238 C 536.667236 534.664063 536.667236 537.331238 536.667236 537.331238 C 536.667236 538.664063 536.667236 538.664063 536.667236 538.664063 C 536.667236 557.331238 539.334412 569.331299 552.667175 579.996887 C 555.334351 582.664063 558 583.996887 560.667236 585.329712 C 563.334412 586.662476 564.667175 586.662476 568.667175 587.996826 C 570 587.996826 570 587.996826 570 587.996826 C 587.332825 591.996826 603.332825 605.329712 620.667175 627.996887 L 347.332825 627.996887 Z M 565.362488 521.896851 C 564.97345 522.359375 564.346863 522.985962 563.332825 524 C 563.840637 523.492188 564.542175 522.789063 565.362488 521.896851 Z"/>
        </g>
    </g>
    <g id="g10">
        <g id="g11">
            <path id="path5" fill="#ffffff" stroke="none" d="M 711.332825 112 L 711.332825 53.332825 C 711.332825 24 687.332825 0 658 0 L 311.332825 0 C 282 0 258 24 258 53.332825 L 258 746.665649 C 258 776 282 800 311.332825 800 L 658 800 C 687.332825 800 711.332825 776 711.332825 746.667175 L 711.332825 346.667206 L 694 352 C 691.332764 353.332794 687.332825 353.332794 684.667236 354.667175 C 692.667175 336 696.667175 314.667175 699.334351 289.334381 L 699.334351 284.001587 L 696.667175 280.001587 C 680.667236 257.334351 671.334412 232.001587 671.334412 204.001587 C 671.334412 170.668762 684.667236 140.001587 707.334351 114.668762 L 711.332825 112 Z M 684.667236 101.332825 C 659.334351 130.665649 644.667175 166.665649 644.667175 204 C 644.667175 234.667175 654 265.332825 671.334412 290.667175 C 668.667236 322.667206 660.667175 349.334381 648.667175 361.334381 C 639.334351 370.667206 647.334351 386.667175 662 384.001556 C 668.667236 382.668762 676.667236 381.334381 684.667236 380.001556 L 684.667236 746.668762 C 684.667236 761.335938 672.667236 773.335938 658 773.335938 L 311.332825 773.335938 C 296.665619 773.335938 284.665619 761.335938 284.665619 746.668762 L 284.665619 53.332825 C 284.665619 38.665649 296.665619 26.665649 311.332825 26.665649 L 658 26.665649 C 672.667236 26.665649 684.667236 38.665649 684.667236 53.332825 L 684.667236 101.332825 Z"/>
        </g>
    </g>
    <g id="g12">
        <g id="g13">
            <path id="path6" fill="#ffffff" stroke="none" d="M 871.332825 133.332825 L 751.332825 133.332825 C 743.332825 133.332825 738 138.665649 738 146.665649 C 738 154.665649 743.332825 159.998413 751.332825 159.998413 L 871.332825 159.998413 C 879.332825 159.998413 884.665649 154.665649 884.665649 146.665649 C 884.667175 138.667175 879.332825 133.332825 871.332825 133.332825 Z"/>
        </g>
    </g>
    <g id="g14">
        <g id="g15">
            <path id="path7" fill="#ffffff" stroke="none" d="M 911.332825 240 L 751.332825 240 C 743.332825 240 738 245.332825 738 253.332825 C 738 261.332825 743.332825 266.665649 751.332825 266.665649 L 911.332825 266.665649 C 919.332825 266.665649 924.665649 261.332825 924.665649 253.332825 C 924.665649 245.332825 919.332825 240 911.332825 240 Z"/>
        </g>
    </g>
    <g id="g16">
        <g id="g17">
            <path id="path8" fill="#ffffff" stroke="none" d="M 938 186.667175 L 751.332825 186.667175 C 743.332764 186.667175 738 192 738 200 C 738 208 743.332764 213.332825 751.332825 213.332825 L 938 213.332825 C 946 213.332825 951.332825 208 951.332825 200 C 951.332825 192 946 186.667175 938 186.667175 Z"/>
        </g>
    </g>
</svg>
