<?xml version="1.0" encoding="UTF-8"?>
<!-- Generated by Pixelmator Pro 3.3.8 -->
<svg width="240" height="240" viewBox="0 0 240 240" xmlns="http://www.w3.org/2000/svg">
    <path id="Path" fill="#df1717" stroke="none" d="M 30.684191 166.408386 L 7.207678 142.932922 C 3.722155 139.447556 3.524845 133.860901 6.755296 130.139008 C 9.453938 127.029945 11.720425 124.558876 13.554725 122.724495 C 72.219131 64.057449 167.333984 64.055313 226.001022 122.719719 C 227.835342 124.553947 230.101868 127.025513 232.800476 130.134277 C 236.031067 133.856262 235.834076 139.442612 232.349243 142.927612 L 208.872864 166.405045 C 207.168823 168.109161 204.450836 168.245728 202.584259 166.72139 C 200.908493 165.352951 199.543625 164.273743 198.489548 163.483795 C 187.767609 155.44812 176.097397 149.264481 163.915878 144.932831 C 161.960632 144.237579 160.785095 142.240479 161.126236 140.193497 L 165.218994 115.629036 C 136.118423 103.976151 103.436348 103.976746 74.336121 115.630753 L 78.424271 140.151596 C 78.768875 142.223602 77.579231 144.244522 75.601501 144.948959 C 63.423771 149.283813 51.757957 155.47023 41.040878 163.508255 C 39.993267 164.292999 38.637623 165.365891 36.97327 166.724915 C 35.10643 168.249268 32.388447 168.112564 30.684191 166.408386 Z"/>
</svg>
